PathFileType	4	(X/Y/Z)	/home/nbianco/projects/addbio/data/HamnerRunning2013/Processed/subject02//results/MarkerData/run200.trc
DataRate	CameraRate	NumFrames	NumMarkers	Units	OrigDataRate	OrigDataStartFrame	OrigNumFrames
119.99	119.99	8	42	m	119.99	0	292
Frame#	Time	C7			CLAV			LACR			LASI			LCAL			LFAradius			LFAsuperior			LFAulna			LLEL			LMEL			LMT5			LPSI			LTB1			LTB2			LTB3			LTH1			LTH2			LTH3			LTOE			LUA1			LUA2			LUA3			RACR			RASI			RCAL			RFAradius			RFAsuperior			RFAulna			RLEL			RMEL			RMT5			RPSI			RTB1			RTB2			RTB3			RTH1			RTH2			RTH3			RTOE			RUA1			RUA2			RUA3		
		X1	Y1	Z1	X2	Y2	Z2	X3	Y3	Z3	X4	Y4	Z4	X5	Y5	Z5	X6	Y6	Z6	X7	Y7	Z7	X8	Y8	Z8	X9	Y9	Z9	X10	Y10	Z10	X11	Y11	Z11	X12	Y12	Z12	X13	Y13	Z13	X14	Y14	Z14	X15	Y15	Z15	X16	Y16	Z16	X17	Y17	Z17	X18	Y18	Z18	X19	Y19	Z19	X20	Y20	Z20	X21	Y21	Z21	X22	Y22	Z22	X23	Y23	Z23	X24	Y24	Z24	X25	Y25	Z25	X26	Y26	Z26	X27	Y27	Z27	X28	Y28	Z28	X29	Y29	Z29	X30	Y30	Z30	X31	Y31	Z31	X32	Y32	Z32	X33	Y33	Z33	X34	Y34	Z34	X35	Y35	Z35	X36	Y36	Z36	X37	Y37	Z37	X38	Y38	Z38	X39	Y39	Z39	X40	Y40	Z40	X41	Y41	Z41	X42	Y42	Z42

1	0.133333	0.84243	1.60617	-0.345363	0.955944	1.52056	-0.286933	0.942649	1.57485	-0.496573	0.903747	1.09013	-0.456173	0.341711	0.295045	-0.374655	1.01418	1.29491	-0.437104	0.917025	1.24918	-0.584402	1.03286	1.2248	-0.453006	0.831646	1.24091	-0.633634	0.767314	1.23965	-0.570523	0.376531	0.12129	-0.429278	0.725965	1.142	-0.364842	0.647171	0.429853	-0.404143	0.562622	0.389214	-0.451786	0.496558	0.29545	-0.386073	0.793998	0.883831	-0.500161	0.813854	0.751355	-0.483965	0.715913	0.661077	-0.465738	0.438562	0.0858484	-0.340433	0.926567	1.48803	-0.573772	0.929011	1.41553	-0.56513	0.835218	1.40816	-0.585855	0.883874	1.58895	-0.170039	0.900597	1.10098	-0.198261	0.975353	0.0966191	-0.31832	0.773065	1.17994	-0.121212	0.657077	1.30549	-0.0532683	0.724871	1.15067	-0.0744781	0.589581	1.38939	-0.0648836	0.584171	1.38952	-0.147008	1.14883	0.0785034	-0.246886	0.724087	1.1363	-0.281138	1.04196	0.438266	-0.282277	1.02751	0.365922	-0.21646	1.05697	0.273423	-0.291804	0.856913	0.927536	-0.140934	0.938457	0.832113	-0.149968	0.901199	0.710365	-0.19525	1.20513	0.136839	-0.330374	0.806342	1.53179	-0.0941952	0.761265	1.44974	-0.0977438	0.691901	1.48932	-0.100888
2	0.141667	0.842781	1.60185	-0.344365	0.956583	1.51613	-0.286122	0.942524	1.57039	-0.496033	0.904984	1.0869	-0.455597	0.341737	0.303018	-0.376062	1.01367	1.28866	-0.43669	0.915652	1.24448	-0.583988	1.03142	1.21834	-0.452689	0.830028	1.23718	-0.632971	0.766032	1.23598	-0.569782	0.369597	0.127957	-0.430798	0.726536	1.13693	-0.365634	0.652527	0.425655	-0.403982	0.566926	0.38794	-0.452103	0.496317	0.297386	-0.386652	0.798558	0.878537	-0.499623	0.820395	0.746308	-0.482759	0.723977	0.654708	-0.465939	0.429665	0.0898917	-0.3418	0.925392	1.48374	-0.573209	0.928089	1.41138	-0.564742	0.833952	1.40423	-0.584544	0.885239	1.58458	-0.168726	0.900526	1.09706	-0.197075	0.966428	0.0957405	-0.320575	0.777909	1.17489	-0.118733	0.661165	1.29926	-0.0502955	0.730597	1.14508	-0.0715004	0.592706	1.38244	-0.0615841	0.586723	1.38228	-0.143635	1.13833	0.0709205	-0.248618	0.72431	1.13056	-0.28222	1.03894	0.432603	-0.283534	1.02382	0.360505	-0.217834	1.0512	0.267623	-0.293137	0.856	0.92294	-0.141639	0.938826	0.828363	-0.151904	0.900685	0.705956	-0.196226	1.19651	0.126062	-0.333061	0.808043	1.52663	-0.0925051	0.76363	1.44402	-0.09595	0.69396	1.48296	-0.0983895
3	0.15	0.842974	1.59694	-0.343273	0.957321	1.51097	-0.285185	0.942431	1.56514	-0.495493	0.906116	1.08288	-0.455246	0.341972	0.310794	-0.37711	1.01309	1.28134	-0.436452	0.914011	1.23894	-0.583616	1.02993	1.21102	-0.452848	0.828072	1.23272	-0.632245	0.764445	1.23163	-0.568843	0.36425	0.135181	-0.432919	0.726999	1.13111	-0.366609	0.658443	0.420976	-0.403851	0.571771	0.386456	-0.452499	0.496716	0.299391	-0.387263	0.803179	0.872507	-0.499055	0.827144	0.740524	-0.4817	0.732487	0.647548	-0.466086	0.422569	0.0944878	-0.343925	0.924141	1.47863	-0.572726	0.927031	1.40635	-0.564368	0.832462	1.39947	-0.583172	0.886655	1.57936	-0.167359	0.900452	1.09264	-0.196136	0.95554	0.0956936	-0.32307	0.783433	1.16911	-0.116079	0.665801	1.29204	-0.0469078	0.737075	1.13865	-0.0683868	0.596271	1.37436	-0.0577299	0.589545	1.37398	-0.139704	1.1255	0.0633332	-0.249636	0.724421	1.12434	-0.283436	1.03567	0.426572	-0.285078	1.0196	0.354557	-0.2198	1.04429	0.261178	-0.29514	0.855792	0.917852	-0.142463	0.939328	0.824259	-0.154221	0.90031	0.701073	-0.197191	1.18638	0.113303	-0.335174	0.809986	1.5204	-0.0906843	0.766259	1.43736	-0.0939461	0.696297	1.47558	-0.0954065
4	0.158333	0.842956	1.59151	-0.342095	0.958167	1.50509	-0.284217	0.942363	1.55919	-0.494989	0.907142	1.07802	-0.455089	0.342646	0.31845	-0.377769	1.01243	1.27297	-0.436359	0.91209	1.23256	-0.583276	1.02836	1.20284	-0.453479	0.825797	1.22753	-0.631467	0.762485	1.2266	-0.567717	0.360632	0.143016	-0.435693	0.72728	1.12466	-0.367684	0.664901	0.415911	-0.403884	0.577116	0.384896	-0.452978	0.497888	0.30145	-0.387954	0.807886	0.865718	-0.498424	0.834044	0.734037	-0.480815	0.741333	0.639674	-0.466141	0.417502	0.0996321	-0.346952	0.922912	1.47275	-0.572332	0.925853	1.40044	-0.563989	0.830782	1.39392	-0.581776	0.888049	1.57327	-0.16602	0.900244	1.0878	-0.195577	0.94292	0.0962092	-0.325496	0.789621	1.16261	-0.113317	0.670995	1.28385	-0.0431227	0.744307	1.13143	-0.0651565	0.600279	1.36518	-0.0533341	0.592659	1.36463	-0.13524	1.11101	0.0568634	-0.250108	0.724234	1.1179	-0.284678	1.03257	0.420799	-0.287039	1.01533	0.348681	-0.222453	1.03662	0.25479	-0.297987	0.856241	0.912566	-0.14311	0.939684	0.819988	-0.156252	0.900171	0.69615	-0.19808	1.17486	0.100283	-0.337051	0.812167	1.51313	-0.0887499	0.769158	1.42981	-0.091703	0.698899	1.46723	-0.0919568
5	0.166667	0.842671	1.58569	-0.340849	0.95906	1.4985	-0.283406	0.942288	1.55263	-0.494623	0.908007	1.07226	-0.454986	0.34423	0.326041	-0.378096	1.01166	1.26357	-0.436361	0.909884	1.22536	-0.582962	1.02665	1.19372	-0.454443	0.823223	1.22166	-0.630633	0.760153	1.22092	-0.566434	0.358854	0.151406	-0.439087	0.727217	1.11774	-0.368727	0.671923	0.410692	-0.404165	0.583024	0.383429	-0.453492	0.500071	0.303522	-0.388785	0.812724	0.858193	-0.497697	0.841034	0.726956	-0.480124	0.750418	0.63124	-0.466026	0.414611	0.105216	-0.350931	0.921833	1.46613	-0.572006	0.924576	1.3937	-0.563572	0.828967	1.38767	-0.580417	0.889336	1.56636	-0.164714	0.899644	1.08272	-0.195474	0.928953	0.09695	-0.327468	0.79645	1.15543	-0.110527	0.676753	1.27471	-0.0389797	0.752282	1.12349	-0.0618332	0.604733	1.35495	-0.0484292	0.596099	1.35424	-0.130293	1.09571	0.0527782	-0.250408	0.723454	1.11151	-0.285806	1.03012	0.416175	-0.289479	1.01159	0.343868	-0.225673	1.02878	0.249641	-0.301639	0.857072	0.907649	-0.143248	0.939657	0.815977	-0.157231	0.900482	0.691878	-0.19871	1.162	0.089562	-0.339271	0.814574	1.50491	-0.0867069	0.772341	1.4214	-0.089193	0.701753	1.45795	-0.0880832
6	0.175	0.842153	1.57969	-0.339538	0.95987	1.49135	-0.282901	0.942139	1.54564	-0.494529	0.908564	1.06573	-0.454718	0.347249	0.333523	-0.37826	1.01077	1.25314	-0.436412	0.907405	1.21738	-0.582663	1.0247	1.18354	-0.455486	0.820371	1.21518	-0.629734	0.757587	1.21464	-0.565051	0.358918	0.160116	-0.442939	0.726639	1.11049	-0.369647	0.679605	0.405651	-0.404555	0.589716	0.382156	-0.453944	0.503519	0.305576	-0.389778	0.817692	0.850118	-0.496865	0.848075	0.719548	-0.479623	0.759737	0.622477	-0.46566	0.413804	0.11101	-0.355691	0.92098	1.45873	-0.571696	0.923216	1.38615	-0.563076	0.827083	1.38082	-0.579179	0.890451	1.55882	-0.163315	0.89841	1.07765	-0.195702	0.914073	0.0977411	-0.328807	0.803885	1.14762	-0.107747	0.683068	1.26467	-0.0345309	0.76097	1.11492	-0.0584368	0.609646	1.3437	-0.0430723	0.599867	1.34286	-0.124915	1.08017	0.0513063	-0.250842	0.721888	1.10527	-0.286774	1.02838	0.413197	-0.292198	1.00863	0.340843	-0.228984	1.02114	0.24663	-0.305605	0.857797	0.903637	-0.142812	0.939364	0.812699	-0.156999	0.901459	0.688704	-0.198842	1.14787	0.0827104	-0.342041	0.817175	1.49579	-0.0845549	0.775799	1.41217	-0.0864763	0.704856	1.44777	-0.08384
7	0.183333	0.841578	1.57372	-0.338153	0.960491	1.48397	-0.282683	0.941816	1.53838	-0.494791	0.908614	1.05876	-0.454121	0.352057	0.340778	-0.378467	1.00977	1.24168	-0.436487	0.904688	1.2087	-0.58237	1.02246	1.1722	-0.4564	0.817262	1.20825	-0.628784	0.754987	1.2079	-0.563647	0.360812	0.168823	-0.447033	0.72546	1.10302	-0.370459	0.688119	0.401108	-0.404704	0.597494	0.381111	-0.454253	0.508439	0.307627	-0.390903	0.822711	0.841899	-0.495948	0.855144	0.712277	-0.479279	0.769337	0.613718	-0.46502	0.414891	0.116759	-0.360907	0.920337	1.45055	-0.571346	0.921768	1.37784	-0.562431	0.825205	1.37349	-0.578164	0.89134	1.55092	-0.161697	0.896483	1.07277	-0.196005	0.898689	0.0985653	-0.329554	0.811879	1.1392	-0.104981	0.689931	1.25379	-0.0298308	0.770326	1.10575	-0.0549858	0.61505	1.33152	-0.0373506	0.603913	1.33054	-0.119136	1.06453	0.0515034	-0.251384	0.719612	1.09907	-0.28768	1.02691	0.411607	-0.294762	1.0061	0.339564	-0.231755	1.01374	0.245702	-0.309096	0.857917	0.900677	-0.142055	0.939178	0.810372	-0.156097	0.903122	0.686478	-0.198376	1.13277	0.0794236	-0.344862	0.819928	1.48584	-0.0823338	0.77947	1.40216	-0.0837664	0.708215	1.43671	-0.0792644
8	0.191667	0.841214	1.56804	-0.336703	0.960898	1.47682	-0.282577	0.941216	1.53108	-0.495384	0.908004	1.05182	-0.453243	0.358707	0.34766	-0.378858	1.00866	1.2292	-0.436569	0.901792	1.19943	-0.582093	1.01986	1.15972	-0.457155	0.81394	1.20108	-0.62783	0.752466	1.20093	-0.562301	0.364617	0.177237	-0.451203	0.723734	1.0955	-0.371293	0.697675	0.397253	-0.404271	0.606592	0.380311	-0.454429	0.514948	0.309733	-0.392087	0.82762	0.834091	-0.494995	0.862232	0.705711	-0.479032	0.779223	0.605403	-0.464173	0.417766	0.122282	-0.366232	0.919795	1.44171	-0.570917	0.9202	1.36896	-0.561551	0.823401	1.36582	-0.577468	0.891937	1.54299	-0.1599	0.894055	1.06818	-0.196184	0.883096	0.0994229	-0.329857	0.820369	1.13021	-0.102234	0.697351	1.24213	-0.024939	0.780313	1.09603	-0.0514973	0.62101	1.31852	-0.0313821	0.608151	1.31738	-0.112976	1.04875	0.0520461	-0.251751	0.716947	1.09276	-0.288732	1.02509	0.41054	-0.29669	1.00331	0.339205	-0.233518	1.0062	0.245803	-0.311379	0.857148	0.898384	-0.141358	0.939345	0.808758	-0.155265	0.905146	0.68453	-0.197509	1.11715	0.0781071	-0.346913	0.822806	1.4751	-0.080155	0.783258	1.39147	-0.0813793	0.711835	1.42484	-0.0743599
